<?xml version="1.0" standalone="no"?>
<!DOCTYPE svg PUBLIC "-//W3C//DTD SVG 20010904//EN"
 "http://www.w3.org/TR/2001/REC-SVG-20010904/DTD/svg10.dtd">
<svg version="1.0" xmlns="http://www.w3.org/2000/svg"
 width="700.000000pt" height="700.000000pt" viewBox="0 0 700.000000 700.000000"
 preserveAspectRatio="xMidYMid meet">
<metadata>
Created by potrace 1.14, written by Peter Selinger 2001-2017
</metadata>
<g transform="translate(0.000000,700.000000) scale(0.100000,-0.100000)"
fill="#000000" stroke="none">
<path d="M2240 6408 c-152 -22 -302 -120 -391 -256 -42 -64 -61 -107 -87 -193
-4 -13 -8 -850 -9 -1859 -3 -2029 -7 -1887 63 -2030 27 -53 58 -95 108 -145
80 -80 157 -124 266 -154 75 -21 79 -21 1915 -19 l1840 3 66 22 c207 71 364
255 397 466 5 29 8 872 7 1873 -2 1710 -3 1822 -19 1874 -66 203 -204 341
-406 406 -52 16 -165 17 -1875 19 -1001 0 -1845 -3 -1875 -7z m1550 -1886 l5
-1311 420 314 c231 173 426 319 433 326 7 6 18 9 25 6 7 -3 203 -149 437 -325
234 -176 426 -318 428 -317 2 2 4 591 4 1309 0 1213 1 1306 16 1307 104 5 265
2 270 -5 7 -12 9 -3475 2 -3485 -3 -4 -790 -7 -1751 -7 l-1745 0 0 1745 c0
960 3 1748 7 1751 4 3 330 5 726 4 l718 -1 5 -1311z m1142 1309 l26 -1 0 -725
c0 -541 -3 -723 -12 -718 -6 3 -70 51 -143 105 -85 65 -137 97 -145 92 -7 -4
-70 -50 -140 -102 -69 -52 -130 -93 -135 -91 -7 4 -13 1410 -6 1434 3 8 377
12 555 6z"/>
<path d="M585 3158 c2 -1977 3 -2096 19 -2148 66 -204 203 -340 406 -406 52
-16 174 -17 2148 -19 l2092 -2 0 292 0 291 -2036 0 c-1903 -1 -2037 0 -2043
16 -3 9 -6 928 -5 2042 l1 2026 -292 0 -292 0 2 -2092z"/>
</g>
</svg>
